<svg id="Layer_1" data-name="Layer 1" xmlns="http://www.w3.org/2000/svg" xmlns:xlink="http://www.w3.org/1999/xlink" viewBox="0 0 75.75 72.91"><defs><style>.cls-1,.cls-2{fill:none;}.cls-1{clip-rule:evenodd;}.cls-3{clip-path:url(#clip-path);}.cls-4{clip-path:url(#clip-path-2);}.cls-5{isolation:isolate;}.cls-6{clip-path:url(#clip-path-3);}.cls-7{clip-path:url(#clip-path-4);}.cls-8{clip-path:url(#clip-path-5);}.cls-9{fill:#34b44a;}.cls-10{clip-path:url(#clip-path-6);}</style><clipPath id="clip-path" transform="translate(2.88 2.96)"><polygon class="cls-1" points="35 1.78 1.86 1.78 1.86 65.22 35 65.22 68.14 65.22 68.14 1.78 35 1.78"/></clipPath><clipPath id="clip-path-2" transform="translate(2.88 2.96)"><rect class="cls-2" x="-348.5" y="-110.9" width="969.64" height="449.79"/></clipPath><clipPath id="clip-path-3" transform="translate(2.88 2.96)"><rect class="cls-2" x="0.91" y="1.78" width="68.18" height="63.44"/></clipPath><clipPath id="clip-path-4" transform="translate(2.88 2.96)"><path class="cls-1" d="M33.58,65.22h0a31.72,31.72,0,0,1-22.4-54.17A31.52,31.52,0,0,1,33.58,1.78h0A31.52,31.52,0,0,1,46.49,4.52a2.68,2.68,0,1,1-2.18,4.9A26.19,26.19,0,0,0,33.59,7.14h0a26.36,26.36,0,0,0,0,52.72h0A26.36,26.36,0,0,0,59.94,33.52v-2.7a2.68,2.68,0,0,1,5.36,0v2.7A31.72,31.72,0,0,1,33.58,65.22"/></clipPath><clipPath id="clip-path-5" transform="translate(2.88 2.96)"><rect class="cls-2" x="1.86" y="1.78" width="66.28" height="63.44"/></clipPath><clipPath id="clip-path-6" transform="translate(2.88 2.96)"><path class="cls-1" d="M33.94,41.55a2.64,2.64,0,0,1-1.87-.78l-8.61-8.62a2.65,2.65,0,0,1,3.74-3.75l6.73,6.75L63.62,5.4a2.65,2.65,0,1,1,3.74,3.75L35.81,40.77a2.64,2.64,0,0,1-1.87.78"/></clipPath></defs><title>check</title><g class="cls-3"><g class="cls-4"><g class="cls-5"><g class="cls-6"><g class="cls-7"><g class="cls-8"><rect class="cls-9" width="72.91" height="72.91"/></g></g><g class="cls-10"><g class="cls-8"><rect class="cls-9" x="20.83" y="2.84" width="54.92" height="46.4"/></g></g></g></g></g></g></svg>