<svg id="Layer_1" data-name="Layer 1" xmlns="http://www.w3.org/2000/svg" viewBox="0 0 40.25 34"><defs><style>.cls-1,.cls-2,.cls-3{fill:none;}.cls-1,.cls-3{stroke:#fff;stroke-miterlimit:10;}.cls-1{stroke-width:3px;}.cls-2{fill-rule:evenodd;}.cls-3{stroke-width:1.5px;}</style></defs><title>list</title><path class="cls-1" d="M29.5,18h21a3.5,3.5,0,0,1,0,7h-21a3.5,3.5,0,0,1,0-7Z" transform="translate(-15.25 -16.5)"/><path class="cls-2" d="M29.5,18h21a3.5,3.5,0,0,1,0,7h-21a3.5,3.5,0,0,1,0-7Z" transform="translate(-15.25 -16.5)"/><circle class="cls-3" cx="3.75" cy="5.5" r="3"/><circle class="cls-3" cx="3.75" cy="17.5" r="3"/><circle class="cls-3" cx="3.75" cy="29.5" r="3"/><path class="cls-1" d="M29.5,30h21a3.5,3.5,0,0,1,0,7h-21a3.5,3.5,0,0,1,0-7Z" transform="translate(-15.25 -16.5)"/><path class="cls-2" d="M29.5,30h21a3.5,3.5,0,0,1,0,7h-21a3.5,3.5,0,0,1,0-7Z" transform="translate(-15.25 -16.5)"/><path class="cls-1" d="M29.5,42h21a3.5,3.5,0,0,1,0,7h-21a3.5,3.5,0,0,1,0-7Z" transform="translate(-15.25 -16.5)"/><path class="cls-2" d="M29.5,42h21a3.5,3.5,0,0,1,0,7h-21a3.5,3.5,0,0,1,0-7Z" transform="translate(-15.25 -16.5)"/></svg>